<mxfile host="app.diagrams.net" modified="2021-04-20T02:37:13.426Z" agent="5.0 (Windows NT 10.0; Win64; x64) AppleWebKit/537.36 (KHTML, like Gecko) Chrome/89.0.4389.128 Safari/537.36" etag="-m48gV43kPSqTPAxXSpS" version="14.6.1" type="github">
  <diagram name="Page-1" id="c7558073-3199-34d8-9f00-42111426c3f3">
    <mxGraphModel dx="1038" dy="548" grid="1" gridSize="10" guides="1" tooltips="1" connect="1" arrows="1" fold="1" page="1" pageScale="1" pageWidth="826" pageHeight="1169" background="#ffffff" math="0" shadow="0">
      <root>
        <mxCell id="0" />
        <mxCell id="1" parent="0" />
        <mxCell id="p4-LXXP4EfBYdSoJXtqN-108" style="edgeStyle=orthogonalEdgeStyle;rounded=1;orthogonalLoop=1;jettySize=auto;html=1;exitX=0.131;exitY=1.052;exitDx=0;exitDy=0;entryX=0.75;entryY=1;entryDx=0;entryDy=0;endArrow=classic;endFill=1;strokeWidth=4;exitPerimeter=0;fillColor=#f8cecc;strokeColor=#b85450;" edge="1" parent="1" source="p4-LXXP4EfBYdSoJXtqN-102" target="p4-LXXP4EfBYdSoJXtqN-103">
          <mxGeometry relative="1" as="geometry">
            <Array as="points">
              <mxPoint x="350" y="390" />
              <mxPoint x="118" y="390" />
            </Array>
          </mxGeometry>
        </mxCell>
        <mxCell id="p4-LXXP4EfBYdSoJXtqN-113" style="edgeStyle=orthogonalEdgeStyle;rounded=1;orthogonalLoop=1;jettySize=auto;html=1;exitX=0.323;exitY=-0.014;exitDx=0;exitDy=0;entryX=0.25;entryY=1;entryDx=0;entryDy=0;endArrow=classic;endFill=1;strokeWidth=4;exitPerimeter=0;fillColor=#f8cecc;strokeColor=#b85450;" edge="1" parent="1" source="p4-LXXP4EfBYdSoJXtqN-102" target="p4-LXXP4EfBYdSoJXtqN-112">
          <mxGeometry relative="1" as="geometry">
            <Array as="points">
              <mxPoint x="378" y="299" />
            </Array>
          </mxGeometry>
        </mxCell>
        <mxCell id="p4-LXXP4EfBYdSoJXtqN-123" style="edgeStyle=orthogonalEdgeStyle;rounded=1;orthogonalLoop=1;jettySize=auto;html=1;exitX=0.685;exitY=1;exitDx=0;exitDy=0;entryX=0.75;entryY=0;entryDx=0;entryDy=0;endArrow=classic;endFill=1;strokeWidth=4;exitPerimeter=0;fillColor=#f8cecc;strokeColor=#b85450;" edge="1" parent="1" source="p4-LXXP4EfBYdSoJXtqN-102" target="p4-LXXP4EfBYdSoJXtqN-118">
          <mxGeometry relative="1" as="geometry">
            <Array as="points" />
          </mxGeometry>
        </mxCell>
        <mxCell id="p4-LXXP4EfBYdSoJXtqN-125" style="edgeStyle=orthogonalEdgeStyle;rounded=1;orthogonalLoop=1;jettySize=auto;html=1;exitX=1;exitY=0.25;exitDx=0;exitDy=0;entryX=-0.001;entryY=0.366;entryDx=0;entryDy=0;endArrow=classic;endFill=1;strokeWidth=4;entryPerimeter=0;fillColor=#f8cecc;strokeColor=#b85450;" edge="1" parent="1" source="p4-LXXP4EfBYdSoJXtqN-102" target="p4-LXXP4EfBYdSoJXtqN-124">
          <mxGeometry relative="1" as="geometry" />
        </mxCell>
        <mxCell id="p4-LXXP4EfBYdSoJXtqN-102" value="线索模块" style="shape=process;whiteSpace=wrap;align=center;verticalAlign=middle;size=0.1;fontStyle=1;strokeWidth=3;fillColor=#FFCCCC" vertex="1" parent="1">
          <mxGeometry x="330" y="300" width="149" height="50" as="geometry" />
        </mxCell>
        <mxCell id="p4-LXXP4EfBYdSoJXtqN-104" style="edgeStyle=orthogonalEdgeStyle;rounded=1;orthogonalLoop=1;jettySize=auto;html=1;exitX=0.75;exitY=0;exitDx=0;exitDy=0;fillColor=#f8cecc;strokeColor=#b85450;strokeWidth=4;" edge="1" parent="1" source="p4-LXXP4EfBYdSoJXtqN-103" target="p4-LXXP4EfBYdSoJXtqN-102">
          <mxGeometry relative="1" as="geometry">
            <Array as="points">
              <mxPoint x="118" y="260" />
              <mxPoint x="350" y="260" />
            </Array>
          </mxGeometry>
        </mxCell>
        <mxCell id="p4-LXXP4EfBYdSoJXtqN-110" value="&lt;h3&gt;反馈线索、&lt;br&gt;报备信息&lt;/h3&gt;" style="edgeLabel;html=1;align=center;verticalAlign=middle;resizable=0;points=[];" vertex="1" connectable="0" parent="p4-LXXP4EfBYdSoJXtqN-104">
          <mxGeometry x="-0.1499" y="-3" relative="1" as="geometry">
            <mxPoint x="17" as="offset" />
          </mxGeometry>
        </mxCell>
        <mxCell id="p4-LXXP4EfBYdSoJXtqN-103" value="用户" style="whiteSpace=wrap;align=center;verticalAlign=middle;fontStyle=1;strokeWidth=3;fillColor=#FFFFCC" vertex="1" parent="1">
          <mxGeometry x="50" y="295" width="89" height="60" as="geometry" />
        </mxCell>
        <mxCell id="p4-LXXP4EfBYdSoJXtqN-111" value="&lt;h3&gt;给用户发送&lt;br&gt;通知信息&lt;/h3&gt;" style="edgeLabel;html=1;align=center;verticalAlign=middle;resizable=0;points=[];" vertex="1" connectable="0" parent="1">
          <mxGeometry x="230" y="390" as="geometry">
            <mxPoint y="3" as="offset" />
          </mxGeometry>
        </mxCell>
        <mxCell id="p4-LXXP4EfBYdSoJXtqN-114" style="edgeStyle=orthogonalEdgeStyle;rounded=1;orthogonalLoop=1;jettySize=auto;html=1;exitX=0.75;exitY=1;exitDx=0;exitDy=0;entryX=0.681;entryY=-0.023;entryDx=0;entryDy=0;endArrow=classic;endFill=1;strokeWidth=4;entryPerimeter=0;fillColor=#f8cecc;strokeColor=#b85450;" edge="1" parent="1" source="p4-LXXP4EfBYdSoJXtqN-112" target="p4-LXXP4EfBYdSoJXtqN-102">
          <mxGeometry relative="1" as="geometry" />
        </mxCell>
        <mxCell id="p4-LXXP4EfBYdSoJXtqN-112" value="&lt;h3 style=&quot;margin: 4px 0px 0px ; text-align: center&quot;&gt;clue&lt;/h3&gt;&lt;div&gt;（线索表）&lt;/div&gt;" style="verticalAlign=middle;align=center;overflow=fill;fontSize=12;fontFamily=Helvetica;html=1;rounded=1;fontStyle=1;strokeWidth=3;fillColor=#E6FFCC" vertex="1" parent="1">
          <mxGeometry x="350" y="100" width="109" height="90" as="geometry" />
        </mxCell>
        <mxCell id="p4-LXXP4EfBYdSoJXtqN-116" value="&lt;h3&gt;更新线索信息&lt;/h3&gt;" style="edgeLabel;html=1;align=center;verticalAlign=middle;resizable=0;points=[];" vertex="1" connectable="0" parent="1">
          <mxGeometry x="380" y="240" as="geometry">
            <mxPoint x="-12" y="-10" as="offset" />
          </mxGeometry>
        </mxCell>
        <mxCell id="p4-LXXP4EfBYdSoJXtqN-117" value="&lt;h3&gt;读取线索信息&lt;/h3&gt;" style="edgeLabel;html=1;align=center;verticalAlign=middle;resizable=0;points=[];" vertex="1" connectable="0" parent="1">
          <mxGeometry x="430" y="280" as="geometry">
            <mxPoint x="-9" y="-23" as="offset" />
          </mxGeometry>
        </mxCell>
        <mxCell id="p4-LXXP4EfBYdSoJXtqN-120" style="edgeStyle=orthogonalEdgeStyle;rounded=1;orthogonalLoop=1;jettySize=auto;html=1;exitX=0.25;exitY=0;exitDx=0;exitDy=0;endArrow=classic;endFill=1;strokeWidth=4;fillColor=#f8cecc;strokeColor=#b85450;" edge="1" parent="1" source="p4-LXXP4EfBYdSoJXtqN-118">
          <mxGeometry relative="1" as="geometry">
            <mxPoint x="378" y="350" as="targetPoint" />
            <Array as="points">
              <mxPoint x="378" y="410" />
              <mxPoint x="378" y="410" />
              <mxPoint x="378" y="350" />
            </Array>
          </mxGeometry>
        </mxCell>
        <mxCell id="p4-LXXP4EfBYdSoJXtqN-118" value="&lt;h3 style=&quot;margin: 4px 0px 0px ; text-align: center&quot;&gt;user_clue&lt;br&gt;（用户线索表）&lt;/h3&gt;" style="verticalAlign=middle;align=center;overflow=fill;fontSize=12;fontFamily=Helvetica;html=1;rounded=1;fontStyle=1;strokeWidth=3;fillColor=#E6FFCC" vertex="1" parent="1">
          <mxGeometry x="350" y="470" width="109" height="90" as="geometry" />
        </mxCell>
        <mxCell id="p4-LXXP4EfBYdSoJXtqN-121" value="&lt;h3&gt;查看用户&lt;br&gt;反馈的线索&lt;/h3&gt;" style="edgeLabel;html=1;align=center;verticalAlign=middle;resizable=0;points=[];" vertex="1" connectable="0" parent="1">
          <mxGeometry x="390" y="440" as="geometry">
            <mxPoint x="-12" y="-10" as="offset" />
          </mxGeometry>
        </mxCell>
        <mxCell id="p4-LXXP4EfBYdSoJXtqN-122" value="&lt;h3&gt;更新用户&lt;br&gt;反馈的线索&lt;/h3&gt;" style="edgeLabel;html=1;align=center;verticalAlign=middle;resizable=0;points=[];" vertex="1" connectable="0" parent="1">
          <mxGeometry x="440" y="396" as="geometry">
            <mxPoint x="-12" y="-10" as="offset" />
          </mxGeometry>
        </mxCell>
        <mxCell id="p4-LXXP4EfBYdSoJXtqN-126" style="edgeStyle=orthogonalEdgeStyle;rounded=1;orthogonalLoop=1;jettySize=auto;html=1;exitX=-0.006;exitY=0.633;exitDx=0;exitDy=0;entryX=1;entryY=0.75;entryDx=0;entryDy=0;endArrow=classic;endFill=1;strokeWidth=4;exitPerimeter=0;fillColor=#f8cecc;strokeColor=#b85450;" edge="1" parent="1" source="p4-LXXP4EfBYdSoJXtqN-124" target="p4-LXXP4EfBYdSoJXtqN-102">
          <mxGeometry relative="1" as="geometry" />
        </mxCell>
        <mxCell id="p4-LXXP4EfBYdSoJXtqN-124" value="&lt;h3 style=&quot;margin: 4px 0px 0px ; text-align: center&quot;&gt;user_notice&lt;br&gt;（用户通知表）&lt;/h3&gt;" style="verticalAlign=middle;align=center;overflow=fill;fontSize=12;fontFamily=Helvetica;html=1;rounded=1;fontStyle=1;strokeWidth=3;fillColor=#E6FFCC" vertex="1" parent="1">
          <mxGeometry x="580" y="280" width="109" height="90" as="geometry" />
        </mxCell>
        <mxCell id="p4-LXXP4EfBYdSoJXtqN-127" value="&lt;h3&gt;发布用户通知&lt;/h3&gt;" style="edgeLabel;html=1;align=center;verticalAlign=middle;resizable=0;points=[];" vertex="1" connectable="0" parent="1">
          <mxGeometry x="530" y="325" as="geometry">
            <mxPoint x="-9" y="-23" as="offset" />
          </mxGeometry>
        </mxCell>
        <mxCell id="p4-LXXP4EfBYdSoJXtqN-128" value="&lt;h3&gt;获取用户通知&lt;/h3&gt;" style="edgeLabel;html=1;align=center;verticalAlign=middle;resizable=0;points=[];" vertex="1" connectable="0" parent="1">
          <mxGeometry x="547" y="365" as="geometry">
            <mxPoint x="-9" y="-23" as="offset" />
          </mxGeometry>
        </mxCell>
      </root>
    </mxGraphModel>
  </diagram>
</mxfile>
